:SAMPLES-PER-SECOND 30
:FULLY-SPECIFIED
:DEGREES
186
root  -7.83848 22.9641 4.73468 128.773 -63.1 -113.342
RightUpLeg  -70.7033 0.204973 6.92299
RightLeg  119.602 6.54394 -9.79472
RightFoot  -22.2215 0.487302 6.69569
RightToes  -1.33073e-015 0 -3.6325e-017
Spine  64.9972 -7.32137 16.8227
Spine1  4.98335 4.98069 -5.31466
HEad  -55.447 4.95015 -12.4072
LeftShoulder1  12.4752 -24.6509 -38.0045
LeftArm  -13.2317 -57.8757 -18.4826
LeftForeArm  53.6053 2.3095 -9.76359
LeftHand  -0.244104 0.0205437 5.32207
RightShoulder  5.08224 16.8443 18.4132
RightArm  0.812468 66.07 14.4009
RightForeArm  7.1021 21.9614 4.96805
RightHand  -2.52914 7.98752 -23.1649
LeftUpLeg  -31.4229 19.1106 11.1055
LeftLeg  114.712 -6.2564 11.6417
LeftFoot  3.63808 1.14001 -8.8282
LeftToes  -7.82198e-011 2.46994e-011 -7.94165e-012
187
root  -7.81834 23.147 4.63958 127.699 -62.9682 -115.243
RightUpLeg  -76.2233 -1.40515 10.9621
RightLeg  115.45 5.96062 -10.5344
RightFoot  -22.1161 0.551686 7.42806
RightToes  -1.33073e-015 0 -3.6325e-017
Spine  66.1162 -7.22662 14.8874
Spine1  5.92638 3.51693 -4.1185
HEad  -55.6114 7.61309 -12.9534
LeftShoulder1  12.5293 -24.7078 -38.1014
LeftArm  -14.6044 -54.7439 -15.4363
LeftForeArm  51.4239 2.96509 -9.53447
LeftHand  -0.244104 0.0205437 5.32207
RightShoulder  4.8831 16.4062 17.9315
RightArm  -1.22931 64.7066 15.2188
RightForeArm  10.5866 26.1143 4.94276
RightHand  -2.31719 7.21865 -21.3165
LeftUpLeg  -27.3925 19.3429 12.0929
LeftLeg  113.732 -6.18761 12.0083
LeftFoot  3.28937 1.12127 -8.87783
LeftToes  -7.82198e-011 2.46994e-011 -7.94165e-012
188
root  -7.90889 23.3164 4.40688 126.586 -63.404 -116.411
RightUpLeg  -80.1347 -3.14106 15.6093
RightLeg  109.132 4.78242 -11.2211
RightFoot  -22.2693 0.686605 8.7557
RightToes  -1.33073e-015 0 -3.6325e-017
Spine  66.3945 -6.89754 13.5726
Spine1  6.65451 2.56242 -3.07005
HEad  -55.4864 9.19708 -12.8238
LeftShoulder1  12.5341 -24.7443 -38.0616
LeftArm  -14.4276 -52.2937 -14.7878
LeftForeArm  50.228 3.40905 -9.45569
LeftHand  -0.244104 0.0205437 5.32207
RightShoulder  4.78864 15.9669 18.0126
RightArm  -1.68561 60.9917 16.8583
RightForeArm  7.43567 27.9817 5.64644
RightHand  -3.39862 10.0183 -25.5861
LeftUpLeg  -24.0004 19.2109 12.988
LeftLeg  112.64 -6.03229 12.2828
LeftFoot  3.3275 1.10216 -8.70894
LeftToes  -7.82198e-011 2.46994e-011 -7.94165e-012
189
root  -8.10173 23.4596 4.04206 124.651 -64.7758 -116.546
RightUpLeg  -82.1409 -5.26157 19.9245
RightLeg  101.82 3.2527 -11.6403
RightFoot  -21.7924 0.639012 8.57011
RightToes  -1.33073e-015 0 -3.6325e-017
Spine  66.3436 -6.54928 12.4947
Spine1  7.21664 1.62771 -1.63158
HEad  -54.8082 10.0549 -12.2463
LeftShoulder1  12.4848 -24.6243 -38.0781
LeftArm  -13.3468 -50.2889 -15.4842
LeftForeArm  49.7208 3.58704 -9.50672
LeftHand  -0.244104 0.0205437 5.32207
RightShoulder  5.08443 15.8632 19.7954
RightArm  -0.558413 54.9917 17.0174
RightForeArm  4.02703 29.8622 6.2873
RightHand  -3.41956 9.58015 -26.3307
LeftUpLeg  -20.7945 18.2396 13.5569
LeftLeg  111.524 -5.76191 12.3389
LeftFoot  3.49879 1.1458 -8.95017
LeftToes  -7.82198e-011 2.46994e-011 -7.94165e-012
190
root  -8.44044 23.5666 3.55702 121.759 -66.7966 -116.121
RightUpLeg  -81.7769 -7.2564 22.6201
RightLeg  96.0299 2.07415 -12.2603
RightFoot  -20.3189 0.304872 5.57395
RightToes  -1.33073e-015 0 -3.6325e-017
Spine  66.4576 -6.33896 11.3938
Spine1  7.82591 0.628059 -0.133774
HEad  -53.8824 10.4982 -11.4228
LeftShoulder1  12.3589 -24.3282 -38.1046
LeftArm  -11.9947 -48.4481 -16.6048
LeftForeArm  49.8127 3.57976 -9.59089
LeftHand  -0.244104 0.0205437 5.32207
RightShoulder  5.61417 15.8855 22.6804
RightArm  2.56119 47.7621 16.1326
RightForeArm  3.69969 31.7183 6.77149
RightHand  -2.56455 7.06504 -23.9173
LeftUpLeg  -16.7257 16.4511 14.0091
LeftLeg  110.185 -5.35877 12.2144
LeftFoot  3.46473 1.28355 -10.0214
LeftToes  -7.82198e-011 2.46994e-011 -7.94165e-012
191
root  -8.94823 23.6654 2.97362 118.506 -68.6597 -115.06
RightUpLeg  -80.0346 -8.21051 23.3581
RightLeg  93.9894 1.82084 -13.9667
RightFoot  -19.1569 -0.0166382 1.71973
RightToes  -1.33073e-015 0 -3.6325e-017
Spine  66.0864 -6.33556 10.9006
Spine1  8.80714 -0.040088 0.905344
HEad  -53.2992 10.476 -10.6043
LeftShoulder1  12.2558 -23.9687 -38.3106
LeftArm  -11.0447 -46.9787 -17.5942
LeftForeArm  50.4653 3.34408 -9.57477
LeftHand  -0.244104 0.0205437 5.32207
RightShoulder  6.01839 15.8114 25
RightArm  7.37242 39.7364 16.2341
RightForeArm  4.64531 32.3224 6.87552
RightHand  -2.53865 6.99333 -23.7435
LeftUpLeg  -12.5079 14.1519 14.7907
LeftLeg  108.511 -4.6944 11.5934
LeftFoot  3.79883 1.44374 -11.0122
LeftToes  -7.82198e-011 2.46994e-011 -7.94165e-012
192
root  -9.62704 23.8271 2.32504 114.841 -69.9094 -112.212
RightUpLeg  -78.1598 -8.15571 23.2478
RightLeg  94.8441 2.35464 -16.4446
RightFoot  -19.8443 -0.133089 0.003986
RightToes  -1.33073e-015 0 -3.6325e-017
Spine  64.4791 -6.74598 11.6099
Spine1  9.56211 -0.197748 1.2839
HEad  -52.8354 10.0955 -9.9432
LeftShoulder1  12.2866 -23.5952 -39.018
LeftArm  -10.7324 -45.7947 -18.2437
LeftForeArm  51.2 2.69849 -9.39403
LeftHand  -0.244104 0.0205437 5.32207
RightShoulder  6.31417 15.7942 26.6272
RightArm  12.4735 30.9157 17.5895
RightForeArm  5.12628 31.3794 6.60635
RightHand  -3.0304 8.45988 -25.3511
LeftUpLeg  -9.44383 11.6211 16.2299
LeftLeg  106.387 -3.69818 10.1345
LeftFoot  4.57592 1.52945 -11.1104
LeftToes  -7.82198e-011 2.46994e-011 -7.94165e-012
193
root  -10.4639 24.1434 1.66746 111.304 -70.6264 -108.043
RightUpLeg  -76.5198 -7.92571 23.5078
RightLeg  95.7948 2.94905 -18.5354
RightFoot  -22.0089 -0.0922964 0.591079
RightToes  -1.33073e-015 0 -3.6325e-017
Spine  62.0556 -7.26775 12.9202
Spine1  9.14427 -0.15371 1.42222
HEad  -51.6778 9.93471 -9.56468
LeftShoulder1  12.463 -23.1226 -40.4224
LeftArm  -10.8764 -44.4093 -18.4206
LeftForeArm  51.4062 2.06315 -9.09427
LeftHand  -0.244104 0.0205437 5.32207
RightShoulder  6.72436 15.9172 28.58
RightArm  17.6711 22.2045 18.9197
RightForeArm  5.47849 29.2453 6.05739
RightHand  -2.80488 7.89771 -24.4021
LeftUpLeg  -7.26677 9.39715 17.8905
LeftLeg  103.264 -2.6758 8.7037
LeftFoot  4.51333 1.57116 -11.4518
LeftToes  -7.82198e-011 2.46994e-011 -7.94165e-012
194
root  -11.4082 24.6365 1.04881 108.848 -71.2817 -104.391
RightUpLeg  -74.8754 -7.98894 24.1251
RightLeg  95.5936 3.08809 -19.9178
RightFoot  -24.3036 -0.0209263 1.27735
RightToes  -1.33073e-015 0 -3.6325e-017
Spine  59.5745 -7.65749 13.7568
Spine1  8.20458 -0.456915 1.32265
HEad  -50.1597 10.5956 -9.16878
LeftShoulder1  12.4996 -22.5688 -41.5018
LeftArm  -11.4865 -42.8554 -18.2543
LeftForeArm  51.0926 2.52376 -8.61723
LeftHand  -0.244104 0.0205437 5.32207
RightShoulder  7.41763 16.2188 31.6226
RightArm  23.5392 15.0303 19.2011
RightForeArm  5.07433 26.2941 5.37071
RightHand  -2.07767 5.85751 -21.5238
LeftUpLeg  -4.65033 7.64483 18.6579
LeftLeg  98.6172 -1.9352 8.86535
LeftFoot  2.63185 1.64851 -13.581
LeftToes  -7.82198e-011 2.46994e-011 -7.94165e-012
195
root  -12.3703 25.2488 0.497467 106.954 -72.1734 -101.293
RightUpLeg  -72.9648 -8.13018 24.4279
RightLeg  94.7371 2.93278 -21.1293
RightFoot  -26.3013 0.0166292 1.48345
RightToes  -1.33073e-015 0 -3.6325e-017
Spine  57.7914 -7.56752 13.6608
Spine1  7.06904 -1.12962 2.29755
HEad  -49.3322 11.6189 -9.08626
LeftShoulder1  12.4152 -22.0223 -42.162
LeftArm  -12.3334 -41.838 -18.3192
LeftForeArm  50.8289 4.29828 -8.02112
LeftHand  -0.244104 0.0205437 5.32207
RightShoulder  7.80828 16.1752 33.6915
RightArm  28.1702 9.1315 19.7669
RightForeArm  4.24703 23.4649 4.88899
RightHand  -1.77197 4.95417 -20.0026
LeftUpLeg  -1.36072 5.81473 17.9739
LeftLeg  92.7025 -1.1451 10.65
LeftFoot  -0.450242 1.60757 -16.7396
LeftToes  -7.82198e-011 2.46994e-011 -7.94165e-012
196
root  -13.2868 25.9963 0.0351713 104.216 -73.0337 -97.1317
RightUpLeg  -70.779 -8.13028 24.3376
RightLeg  93.3386 2.52262 -22.4504
RightFoot  -28.113 0.131881 2.18309
RightToes  -1.33073e-015 0 -3.6325e-017
Spine  56.4029 -7.49971 13.6575
Spine1  6.17699 -1.80356 3.88266
HEad  -49.864 12.1387 -9.28429
LeftShoulder1  12.3179 -21.7142 -42.3621
LeftArm  -12.9187 -41.5456 -18.9466
LeftForeArm  50.4703 5.84297 -7.54521
LeftHand  -0.244104 0.0205437 5.32207
RightShoulder  7.87756 15.8788 34.647
RightArm  27.4614 3.80839 20.5928
RightForeArm  5.58026 21.4095 5.04225
RightHand  -1.68858 4.81454 -19.3113
LeftUpLeg  1.6601 3.47099 16.5264
LeftLeg  86.0975 0.147494 12.4214
LeftFoot  -3.66151 1.29433 -18.766
LeftToes  -7.82198e-011 2.46994e-011 -7.94165e-012
197
root  -14.1822 26.9354 -0.334924 101.282 -73.6979 -92.2043
RightUpLeg  -68.639 -7.96495 24.105
RightLeg  90.9429 1.58453 -23.493
RightFoot  -29.403 0.319885 3.27389
RightToes  -1.33073e-015 0 -3.6325e-017
Spine  54.8232 -7.66137 14.3537
Spine1  5.51676 -2.18617 5.01911
HEad  -51.002 11.8697 -9.61327
LeftShoulder1  12.2701 -21.6905 -42.2291
LeftArm  -12.8079 -41.2012 -20.1636
LeftForeArm  49.5208 5.35924 -7.36725
LeftHand  -0.244104 0.0205437 5.32207
RightShoulder  7.92777 15.5795 35.5366
RightArm  21.7053 -0.78064 21.1537
RightForeArm  8.55179 19.7475 5.52937
RightHand  -1.48894 4.26413 -18.0495
LeftUpLeg  4.04658 1.05785 15.0629
LeftLeg  78.737 1.94947 13.3459
LeftFoot  -6.76465 0.824646 -19.4509
LeftToes  -7.82198e-011 2.46994e-011 -7.94165e-012
198
root  -15.0671 28.0215 -0.618465 99.2271 -74.3332 -87.9731
RightUpLeg  -66.4946 -7.91997 23.7598
RightLeg  87.6014 0.120693 -23.8758
RightFoot  -29.8931 0.422011 3.82968
RightToes  -1.33073e-015 0 -3.6325e-017
Spine  53.2144 -7.83606 15.2368
Spine1  4.74829 -2.34464 5.6642
HEad  -51.5547 11.2409 -9.98048
LeftShoulder1  12.2179 -21.7166 -41.988
LeftArm  -12.1903 -40.0424 -21.8862
LeftForeArm  48.2712 2.68633 -7.32499
LeftHand  -0.244104 0.0205437 5.32207
RightShoulder  7.98724 15.2817 36.4931
RightArm  13.7179 -3.74506 21.7295
RightForeArm  10.9491 17.4024 6.2659
RightHand  -1.5015 4.35114 -18.0138
LeftUpLeg  6.23927 -0.956363 13.7394
LeftLeg  70.515 4.30378 14.1668
LeftFoot  -8.38177 0.569248 -19.7829
LeftToes  -7.82198e-011 2.46994e-011 -7.94165e-012
199
root  -15.8897 29.1569 -0.839157 98.0774 -75.1786 -84.868
RightUpLeg  -64.1758 -8.03095 23.0856
RightLeg  83.7802 -1.56909 -23.7033
RightFoot  -29.8639 0.430498 3.8847
RightToes  -1.33073e-015 0 -3.6325e-017
Spine  51.9558 -7.79499 15.6459
Spine1  3.63664 -2.42813 6.40091
HEad  -51.3104 10.6301 -10.2406
LeftShoulder1  12.1208 -21.5837 -41.8687
LeftArm  -11.6958 -38.1388 -23.8368
LeftForeArm  47.2883 -0.926978 -7.15206
LeftHand  -0.244104 0.0205437 5.32207
RightShoulder  7.95371 14.9192 37.1328
RightArm  5.30368 -4.58254 22.6826
RightForeArm  12.4952 14.1941 7.08359
RightHand  -2.03139 6.04519 -20.6461
LeftUpLeg  7.63174 -2.45158 12.4542
LeftLeg  62.7889 6.87865 14.8716
LeftFoot  -5.70759 0.966795 -19.0044
LeftToes  -7.82198e-011 2.46994e-011 -7.94165e-012
